<svg viewBox="0 0 20 21" fill="none" xmlns="http://www.w3.org/2000/svg">
  <path d="M18.5762 10.2112C18.5762 5.45436 14.72 1.59814 9.9631 1.59814C5.20622 1.59814 1.35001 5.45436 1.35001 10.2112C1.35001 14.9681 5.20622 18.8243 9.9631 18.8243" stroke="currentColor" stroke-width="2"/>
  <path d="M13 10.248C13 8.59119 11.6569 7.24805 10 7.24805C8.34315 7.24805 7 8.59119 7 10.248C7 11.9049 8.34315 13.248 10 13.248" stroke="currentColor" stroke-width="2"/>
  <path d="M15.2425 14.0765C14.8519 13.686 14.2188 13.686 13.8282 14.0765C13.4377 14.467 13.4377 15.1002 13.8282 15.4907L15.2425 14.0765ZM19.2068 18.041L15.2425 14.0765L13.8282 15.4907L17.7925 19.4551L19.2068 18.041Z" fill="currentColor"/>
  <path d="M13.1212 17.6118V13.3692H17.3638" stroke="currentColor" stroke-width="2"/>
</svg>
