<svg viewBox="0 0 14 14" fill="none" xmlns="http://www.w3.org/2000/svg">
  <path d="M7.75006 1C7.75006 0.585786 7.41427 0.25 7.00006 0.25C6.58585 0.25 6.25006 0.585786 6.25006 1H7.75006ZM6.46973 13.5303C6.76262 13.8232 7.2375 13.8232 7.53039 13.5303L12.3034 8.75736C12.5963 8.46447 12.5963 7.98959 12.3034 7.6967C12.0105 7.40381 11.5356 7.40381 11.2427 7.6967L7.00006 11.9393L2.75742 7.6967C2.46453 7.40381 1.98965 7.40381 1.69676 7.6967C1.40387 7.98959 1.40387 8.46447 1.69676 8.75736L6.46973 13.5303ZM6.25006 1V13H7.75006V1H6.25006Z" fill="currentColor" />
</svg>
