<svg viewBox="0 0 20 21" fill="none" xmlns="http://www.w3.org/2000/svg">
  <path d="M10 7.24805L10 1.24805C11.78 1.24805 13.5201 1.77589 15.0001 2.76482C16.4802 3.75375 17.6337 5.15936 18.3149 6.8039C18.9961 8.44843 19.1743 10.258 18.8271 12.0039C18.4798 13.7497 17.6226 15.3533 16.364 16.612C15.1053 17.8707 13.5016 18.7278 11.7558 19.0751C10.01 19.4224 8.20038 19.2442 6.55585 18.563C4.91131 17.8818 3.50571 16.7282 2.51677 15.2482C1.52784 13.7681 1 12.0281 1 10.248L7 10.248" stroke="currentColor" stroke-width="2"/>
  <path d="M6 10.248C6 11.0392 6.2346 11.8125 6.67412 12.4703C7.11365 13.1281 7.73836 13.6408 8.46927 13.9436C9.20017 14.2463 10.0044 14.3255 10.7804 14.1712C11.5563 14.0168 12.269 13.6359 12.8284 13.0765C13.3878 12.5171 13.7688 11.8043 13.9231 11.0284C14.0775 10.2525 13.9983 9.44822 13.6955 8.71731C13.3928 7.98641 12.8801 7.36169 12.2223 6.92217C11.5645 6.48264 10.7911 6.24805 10 6.24805" stroke="currentColor" stroke-width="2"/>
  <path d="M6 2.74805L2.5 6.24805H6V2.74805Z" stroke="currentColor" stroke-width="2" stroke-linecap="round"/>
</svg>
