<svg width="14" height="12" viewBox="0 0 14 12" fill="none" xmlns="http://www.w3.org/2000/svg">
    <path fill-rule="evenodd" clip-rule="evenodd"
        d="M8.00006 2.57089C8.9133 2.70152 9.76947 3.00839 10.5332 3.45585L11.7001 1.9C12.0314 1.45817 12.6582 1.36863 13.1001 1.7C13.5419 2.03137 13.6314 2.65817 13.3001 3.1L12.0977 4.70309C12.7574 5.40396 13.2741 6.24076 13.6014 7.16675C13.7854 7.68747 13.5125 8.25879 12.9918 8.44284C12.4711 8.62689 11.8998 8.35396 11.7157 7.83325C11.0288 5.88991 9.17542 4.5 6.99996 4.5C4.82449 4.5 2.97108 5.88991 2.28421 7.83325C2.10016 8.35396 1.52884 8.62689 1.00812 8.44284C0.487405 8.25879 0.214481 7.68747 0.398528 7.16675C0.67957 6.37161 1.10026 5.64223 1.63122 5.00821L0.200059 3.1C-0.131312 2.65817 -0.041769 2.03137 0.400059 1.7C0.841887 1.36863 1.46869 1.45817 1.80006 1.9L3.12647 3.66855C3.97264 3.10528 4.94853 2.72124 6.00006 2.57086V1C6.00006 0.447715 6.44777 0 7.00006 0C7.55234 0 8.00006 0.447715 8.00006 1V2.57089ZM7.00006 8C6.44777 8 6.00006 8.44771 6.00006 9C6.00006 9.55229 6.44777 10 7.00006 10C7.55234 10 8.00006 9.55228 8.00006 9C8.00006 8.44772 7.55234 8 7.00006 8ZM4.00006 9C4.00006 7.34315 5.3432 6 7.00006 6C8.65691 6 10.0001 7.34315 10.0001 9C10.0001 10.6569 8.65691 12 7.00006 12C5.3432 12 4.00006 10.6569 4.00006 9Z"
        fill="currentColor" />
</svg>
