<svg viewBox="0 0 28 28" fill="none" xmlns="http://www.w3.org/2000/svg">
  <path d="M12.0935 7.97708C13.8176 8.12579 15.3666 9.27177 15.9355 11.0213C16.6969 13.3483 15.4279 15.8502 13.0999 16.6112C10.772 17.3723 8.26899 16.1039 7.50759 13.7769C7.3063 13.1558 7 13.287 7 14.0044C7 14.7217 7.10502 15.4565 7.34131 16.1739C8.5403 19.848 12.4961 21.8512 16.1718 20.6528C19.8475 19.4543 21.8516 15.5003 20.6526 11.8261C19.4536 8.15204 15.4979 6.14877 11.8222 7.34723C11.8222 7.34723 11.4108 7.41721 11.5246 7.69715C11.6296 7.96833 12.0935 7.97708 12.0935 7.97708Z" stroke="currentColor" stroke-width="1.2" stroke-miterlimit="10" stroke-linecap="round" stroke-linejoin="round"/>
</svg>
