<svg viewBox="0 0 32 32" fill="none" xmlns="http://www.w3.org/2000/svg">
  <path d="M15.9234 21.8337C18.3373 21.8337 20.2942 19.8769 20.2942 17.463C20.2942 15.0491 18.3373 13.0923 15.9234 13.0923C13.5096 13.0923 11.5527 15.0491 11.5527 17.463C11.5527 19.8769 13.5096 21.8337 15.9234 21.8337Z" stroke="currentColor" stroke-width="2"/>
  <path d="M15.9234 6.83989C17.536 6.83989 18.8433 5.53259 18.8433 3.91994C18.8433 2.3073 17.536 1 15.9234 1C14.3107 1 13.0034 2.3073 13.0034 3.91994C13.0034 5.53259 14.3107 6.83989 15.9234 6.83989Z" stroke="currentColor" stroke-width="2"/>
  <path d="M4.91995 28.2737C6.53259 28.2737 7.83989 26.9664 7.83989 25.3538C7.83989 23.7411 6.53259 22.4338 4.91995 22.4338C3.3073 22.4338 2 23.7411 2 25.3538C2 26.9664 3.3073 28.2737 4.91995 28.2737Z" stroke="currentColor" stroke-width="2"/>
  <path d="M26.9102 28.2737C28.5228 28.2737 29.8301 26.9664 29.8301 25.3538C29.8301 23.7411 28.5228 22.4338 26.9102 22.4338C25.2975 22.4338 23.9902 23.7411 23.9902 25.3538C23.9902 26.9664 25.2975 28.2737 26.9102 28.2737Z" stroke="currentColor" stroke-width="2"/>
  <path d="M2.68734 20.3105C2.49096 19.3928 2.38745 18.4404 2.38745 17.4638C2.38745 12.1467 5.45305 7.5457 9.91336 5.33191" stroke="currentColor" stroke-width="2"/>
  <path d="M29.1699 20.3105C29.3662 19.3928 29.4698 18.4404 29.4698 17.4638C29.4698 12.1467 26.4042 7.5457 21.9438 5.33191" stroke="currentColor" stroke-width="2"/>
  <path d="M22.98 29.0171C20.9254 30.2747 18.5091 30.9997 15.9234 30.9997C13.3377 30.9997 10.9357 30.2788 8.88477 29.0281" stroke="currentColor" stroke-width="2"/>
  <path d="M19.4126 19.9741L24.4232 23.5806" stroke="currentColor" stroke-width="2"/>
  <path d="M7.29297 23.6524L12.3715 20.0107" stroke="currentColor" stroke-width="2"/>
  <path d="M15.9233 13.372V6.38208" stroke="currentColor" stroke-width="2"/>
</svg>
