<svg viewBox="0 0 20 21" fill="none" xmlns="http://www.w3.org/2000/svg">
  <path d="M12.0798 11.3276C12.6321 11.3276 13.0798 10.8799 13.0798 10.3276C13.0798 9.77535 12.6321 9.32764 12.0798 9.32764V11.3276ZM7.07983 11.3276H12.0798V9.32764L7.07983 9.32764L7.07983 11.3276Z" fill="currentColor"/>
  <path d="M9.94506 4.44419C10.2618 3.99178 10.1519 3.36824 9.69948 3.05146C9.24707 2.73468 8.62353 2.84463 8.30675 3.29704L9.94506 4.44419ZM5.35644 10.9974L9.94506 4.44419L8.30675 3.29704L3.71814 9.85025L5.35644 10.9974Z" fill="currentColor"/>
  <path d="M6.09488 2.96924L10.2731 2.23251L11.0098 6.4107" stroke="currentColor" stroke-width="2"/>
  <path d="M9.94506 16.2121C10.2618 16.6645 10.1519 17.288 9.69948 17.6048C9.24707 17.9216 8.62353 17.8116 8.30675 17.3592L9.94506 16.2121ZM5.35644 9.65885L9.94506 16.2121L8.30675 17.3592L3.71814 10.806L5.35644 9.65885Z" fill="currentColor"/>
  <path d="M6.09488 17.687L10.2731 18.4237L11.0098 14.2456" stroke="currentColor" stroke-width="2"/>
  <path d="M17.0798 9.32764C17.6321 9.32764 18.0798 9.77535 18.0798 10.3276C18.0798 10.8799 17.6321 11.3276 17.0798 11.3276L17.0798 9.32764ZM0.079834 9.32764L17.0798 9.32764L17.0798 11.3276L0.079834 11.3276L0.079834 9.32764Z" fill="currentColor"/>
  <path d="M15.0798 13.3276L18.0798 10.3276L15.0798 7.32764" stroke="currentColor" stroke-width="2"/>
</svg>
