<svg viewBox="0 0 32 32" fill="none" xmlns="http://www.w3.org/2000/svg">
  <path d="M7.65758 12.9C7.32621 13.3418 7.41575 13.9686 7.85758 14.3C8.29941 14.6314 8.92621 14.5418 9.25758 14.1L7.65758 12.9ZM9.39647 13.9148C9.72784 13.473 9.6383 12.8462 9.19647 12.5148C8.75465 12.1834 8.12784 12.273 7.79647 12.7148L9.39647 13.9148ZM10.0187 9.75183C9.68735 10.1937 9.77689 10.8205 10.2187 11.1518C10.6605 11.4832 11.2873 11.3937 11.6187 10.9518L10.0187 9.75183ZM11.8965 10.5815C12.2279 10.1396 12.1383 9.51283 11.6965 9.18146C11.2547 8.85009 10.6279 8.93963 10.2965 9.38146L11.8965 10.5815ZM12.5187 6.41848C12.1874 6.86031 12.2769 7.48711 12.7187 7.81848C13.1606 8.14985 13.7874 8.06031 14.1187 7.61848L12.5187 6.41848ZM14.3965 7.24811C14.7279 6.80628 14.6384 6.17948 14.1965 5.84811C13.7547 5.51674 13.1279 5.60628 12.7965 6.04811L14.3965 7.24811ZM15.0188 3.08512C14.6874 3.52695 14.7769 4.15375 15.2188 4.48512C15.6606 4.8165 16.2874 4.72695 16.6188 4.28513L15.0188 3.08512ZM9.25758 14.1L9.39647 13.9148L7.79647 12.7148L7.65758 12.9L9.25758 14.1ZM11.6187 10.9518L11.8965 10.5815L10.2965 9.38146L10.0187 9.75183L11.6187 10.9518ZM14.1187 7.61848L14.3965 7.24811L12.7965 6.04811L12.5187 6.41848L14.1187 7.61848ZM16.6188 4.28513L16.7577 4.09994L15.1577 2.89994L15.0188 3.08512L16.6188 4.28513Z" fill="#989AA8"/>
  <path d="M9.70929 4.35352L16.3944 3.17475L17.5731 9.85985" stroke="#989AA8" stroke-width="2"/>
  <path d="M7.65752 19.1073C7.32615 18.6655 7.41569 18.0387 7.85752 17.7073C8.29934 17.376 8.92615 17.4655 9.25752 17.9073L7.65752 19.1073ZM9.39641 18.0925C9.72778 18.5343 9.63824 19.1611 9.19641 19.4925C8.75458 19.8239 8.12778 19.7343 7.79641 19.2925L9.39641 18.0925ZM10.0187 22.2555C9.68729 21.8137 9.77683 21.1869 10.2187 20.8555C10.6605 20.5241 11.2873 20.6137 11.6187 21.0555L10.0187 22.2555ZM11.8964 21.4259C12.2278 21.8677 12.1383 22.4945 11.6964 22.8259C11.2546 23.1572 10.6278 23.0677 10.2964 22.6259L11.8964 21.4259ZM12.5187 25.5888C12.1873 25.147 12.2769 24.5202 12.7187 24.1888C13.1605 23.8575 13.7873 23.947 14.1187 24.3888L12.5187 25.5888ZM14.3965 24.7592C14.7278 25.201 14.6383 25.8278 14.1965 26.1592C13.7546 26.4906 13.1278 26.401 12.7965 25.9592L14.3965 24.7592ZM15.0187 28.9222C14.6873 28.4804 14.7769 27.8536 15.2187 27.5222C15.6605 27.1908 16.2873 27.2804 16.6187 27.7222L15.0187 28.9222ZM9.25752 17.9073L9.39641 18.0925L7.79641 19.2925L7.65752 19.1073L9.25752 17.9073ZM11.6187 21.0555L11.8964 21.4259L10.2964 22.6259L10.0187 22.2555L11.6187 21.0555ZM14.1187 24.3888L14.3965 24.7592L12.7965 25.9592L12.5187 25.5888L14.1187 24.3888ZM16.6187 27.7222L16.7576 27.9074L15.1576 29.1074L15.0187 28.9222L16.6187 27.7222Z" fill="#989AA8"/>
  <path d="M9.70923 27.6538L16.3943 28.8326L17.5731 22.1475" stroke="#989AA8" stroke-width="2"/>
  <path d="M1.12769 17.1279C0.575401 17.1279 0.127686 16.6802 0.127686 16.1279C0.127686 15.5756 0.575401 15.1279 1.12769 15.1279L1.12769 17.1279ZM1.12769 15.1279L28.3277 15.1279L28.3277 17.1279L1.12769 17.1279L1.12769 15.1279Z" fill="#989AA8"/>
  <path d="M24.1277 20.9277L28.9277 16.1277L24.1277 11.3277" stroke="#989AA8" stroke-width="2"/>
</svg>
