<svg viewBox="0 0 32 32" fill="none" xmlns="http://www.w3.org/2000/svg">
  <path d="M19.3277 17.1279C19.88 17.1279 20.3277 16.6802 20.3277 16.1279C20.3277 15.5756 19.88 15.1279 19.3277 15.1279V17.1279ZM11.3277 17.1279H19.3277V15.1279L11.3277 15.1279L11.3277 17.1279Z" fill="#353E47"/>
  <path d="M16.8256 4.06501C17.1374 3.60913 17.0205 2.98684 16.5646 2.67508C16.1088 2.36333 15.4865 2.48016 15.1747 2.93604L16.8256 4.06501ZM8.08508 16.8463L16.8256 4.06501L15.1747 2.93604L6.43419 15.7173L8.08508 16.8463Z" fill="#353E47"/>
  <path d="M9.75177 4.35352L16.4369 3.17475L17.6156 9.85985" stroke="#353E47" stroke-width="2"/>
  <path d="M16.8255 28.391C17.1373 28.8469 17.0205 29.4692 16.5646 29.781C16.1087 30.0927 15.4864 29.9759 15.1747 29.52L16.8255 28.391ZM8.08502 15.6098L16.8255 28.391L15.1747 29.52L6.43413 16.7387L8.08502 15.6098Z" fill="#353E47"/>
  <path d="M9.75171 28.1025L16.4368 29.2813L17.6156 22.5962" stroke="#353E47" stroke-width="2"/>
  <path d="M27.3277 15.1279C27.88 15.1279 28.3277 15.5756 28.3277 16.1279C28.3277 16.6802 27.88 17.1279 27.3277 17.1279L27.3277 15.1279ZM0.127686 15.1279L27.3277 15.1279L27.3277 17.1279L0.127686 17.1279L0.127686 15.1279Z" fill="#353E47"/>
  <path d="M24.1277 20.9277L28.9277 16.1277L24.1277 11.3277" stroke="#353E47" stroke-width="2"/>
</svg>
