<svg viewBox="0 0 16 16" fill="none" xmlns="http://www.w3.org/2000/svg">
  <rect x="1" y="1" width="14" height="14" rx="7" fill="#FFC700"/>
  <path d="M8.26155 8.5H7.21643L6.875 4.08337H8.65625L8.26155 8.5ZM7.125 11.1595C7.125 10.9788 7.18365 10.8298 7.30095 10.7125C7.41825 10.592 7.57835 10.5318 7.78125 10.5318C7.98415 10.5318 8.14425 10.592 8.26155 10.7125C8.37885 10.8298 8.4375 10.9788 8.4375 11.1595C8.4375 11.3339 8.38043 11.4797 8.2663 11.597C8.15217 11.7143 7.99049 11.7729 7.78125 11.7729C7.57201 11.7729 7.41033 11.7143 7.2962 11.597C7.18207 11.4797 7.125 11.3339 7.125 11.1595Z" fill="#353E47" stroke="#353E47"/>
</svg>
