<svg viewBox="0 0 16 16" fill="none" xmlns="http://www.w3.org/2000/svg">
  <rect x="0.799805" y="0.800049" width="14.4" height="14.4" rx="7.2" fill="#00D2A0" stroke="#00D2A0"/>
  <path d="M7.15924 9.63441C7.15924 9.15771 7.21838 8.77778 7.33666 8.49462C7.45494 8.21147 7.68791 7.90143 8.03558 7.56452C8.38684 7.22401 8.60906 6.98208 8.70225 6.83871C8.84562 6.62007 8.9173 6.38351 8.9173 6.12903C8.9173 5.79211 8.83307 5.53584 8.66461 5.36022C8.49974 5.181 8.25601 5.0914 7.93343 5.0914C7.62519 5.0914 7.37608 5.17921 7.18612 5.35484C6.99974 5.52688 6.90655 5.76165 6.90655 6.05914H5.6001C5.60727 5.42473 5.82232 4.92294 6.24526 4.55376C6.67178 4.18459 7.23451 4 7.93343 4C8.65386 4 9.21479 4.1828 9.61623 4.54839C10.0212 4.91398 10.2238 5.42473 10.2238 6.08065C10.2238 6.66487 9.95135 7.24014 9.40655 7.80645L8.74526 8.45699C8.5087 8.72581 8.38684 9.11828 8.37967 9.63441H7.15924ZM7.06784 11.3065C7.06784 11.095 7.13415 10.9247 7.26676 10.7957C7.39938 10.6631 7.57859 10.5968 7.8044 10.5968C8.03379 10.5968 8.21479 10.6649 8.34741 10.8011C8.48003 10.9337 8.54633 11.1022 8.54633 11.3065C8.54633 11.5036 8.48182 11.6685 8.35279 11.8011C8.22375 11.9337 8.04096 12 7.8044 12C7.56784 12 7.38504 11.9337 7.25601 11.8011C7.13056 11.6685 7.06784 11.5036 7.06784 11.3065Z" fill="#353E47" stroke="#353E47" stroke-width="0.5"/>
</svg>
