<svg width="775" height="453" viewBox="0 0 775 453" fill="none" xmlns="http://www.w3.org/2000/svg">
  <path fill-rule="evenodd" clip-rule="evenodd" d="M0 156.674C0 53.5819 194.86 0 387.241 0C387.328 0 387.415 0 387.501 0C387.587 0 387.672 0 387.759 0C580.14 0 775 53.5819 775 156.674V570.219C775 672.99 580.14 727 387.759 727C387.672 727 387.587 727 387.501 727C387.414 727 387.328 727 387.241 727C194.86 727 0 672.99 0 570.219V156.674ZM54.6625 157.424C52.1968 165.879 51.0725 174.71 51.3494 183.572C51.2536 194.492 52.8943 205.354 56.2058 215.721C56.8791 217.059 57.4322 218.458 57.8588 219.901C58.8355 222.422 60.235 224.743 61.9918 226.759C62.5988 228.025 63.4415 229.154 64.4714 230.081C71.8199 238.543 83.5235 247.161 99.1963 255.465L98.8768 254.729C113.24 262.432 128.164 268.953 143.511 274.232C143.778 274.134 144.07 274.134 144.338 274.232C145.228 274.232 146.479 274.73 148.138 275.39C149.558 275.956 151.277 276.64 153.326 277.233C155.202 277.776 157.095 278.395 159.124 279.058C161.901 279.967 164.932 280.957 168.514 281.948C174.026 283.549 179.556 285.073 185.104 286.522C215.95 293.992 247.177 299.663 278.637 303.507C281.912 303.848 285.189 304.163 288.469 304.453C294.307 305.104 300.299 305.706 306.443 306.24C314.867 306.921 323.534 307.516 332.462 308.005C338.537 308.298 344.743 308.512 351.08 308.632C356.921 308.632 362.862 308.839 368.903 309.05C375 309.263 381.2 309.479 387.5 309.489C393.801 309.479 400 309.263 406.097 309.05C412.138 308.839 418.079 308.632 423.92 308.632C430.257 308.512 436.463 308.298 442.538 308.005C451.465 307.516 460.133 306.921 468.557 306.24C474.701 305.706 480.693 305.104 486.531 304.453C489.811 304.163 493.088 303.848 496.363 303.507C527.823 299.663 559.05 293.992 589.896 286.522C595.444 285.073 600.974 283.549 606.486 281.948C610.068 280.957 613.099 279.967 615.876 279.058C617.904 278.395 619.798 277.776 621.674 277.233C623.723 276.64 625.442 275.956 626.862 275.39C628.521 274.73 629.772 274.232 630.662 274.232C630.93 274.134 631.222 274.134 631.489 274.232C646.836 268.953 661.76 262.432 676.123 254.729L675.804 255.465C691.477 247.161 703.18 238.543 710.529 230.081C711.559 229.154 712.401 228.025 713.008 226.759C714.765 224.743 716.164 222.422 717.141 219.901C717.568 218.458 718.121 217.059 718.794 215.721C722.106 205.354 723.746 194.492 723.651 183.572C723.927 174.71 722.803 165.879 720.338 157.424H720.137C720.073 156.933 719.993 156.446 719.897 155.962C719.319 154.107 718.676 152.271 717.968 150.458C717.728 149.761 717.466 149.073 717.184 148.395C716.391 146.64 715.443 144.962 714.352 143.385C713.519 141.862 712.548 140.429 711.453 139.104C711.421 139.067 711.388 139.029 711.355 138.992C711.352 138.985 711.348 138.979 711.344 138.973C710.519 137.987 709.625 137.062 708.668 136.206L708.657 136.194C707.94 135.45 707.173 134.654 706.378 133.844C701.456 129.409 696.303 125.278 690.945 121.467C690.861 121.415 690.776 121.362 690.691 121.31C687.707 119.608 684.811 117.749 682.012 115.737C671.059 109.338 659.58 103.959 647.71 99.6626L603.076 202.862L597.703 214.757L594.397 222.794C592.726 227.008 590.828 231.123 588.715 235.118C583.4 244.046 573.964 254.099 556.556 254.438C549.864 254.67 541.986 253.419 532.716 250.014L524.037 246.156C522.304 245.403 520.501 244.657 518.628 243.919C512.751 241.668 506.8 239.642 500.787 237.845C494.282 235.929 487.211 234.133 479.582 232.507C475.717 231.713 471.834 231.011 467.934 230.402C466.765 230.177 465.532 229.899 464.258 229.613C464.218 229.604 464.177 229.595 464.137 229.585C460.618 229 457 228.449 453.285 227.938C453.243 227.938 453.201 227.938 453.159 227.938C439.823 226.164 426.426 224.94 413.002 224.267C406.301 223.941 399.372 223.736 392.221 223.665C391.205 223.657 390.188 223.653 389.171 223.651C388.666 223.65 388.16 223.65 387.655 223.651H387.345C386.84 223.65 386.334 223.65 385.829 223.651C384.812 223.653 383.795 223.657 382.779 223.665C375.627 223.736 368.7 223.941 361.999 224.267C348.576 224.94 335.177 226.164 321.841 227.938C321.799 227.938 321.757 227.938 321.715 227.938C318 228.449 314.382 229 310.863 229.585C310.823 229.595 310.782 229.604 310.742 229.613C309.468 229.899 308.235 230.177 307.066 230.402C303.166 231.011 299.283 231.713 295.418 232.507C287.789 234.133 280.718 235.929 274.213 237.844C268.2 239.642 262.248 241.668 256.372 243.92C254.499 244.657 252.696 245.403 250.963 246.156L242.284 250.014C233.014 253.419 225.135 254.67 218.443 254.438C201.036 254.099 191.6 244.046 186.285 235.118C184.172 231.123 182.274 227.008 180.603 222.794L177.297 214.757L171.924 202.862L127.29 99.6626C115.42 103.959 103.941 109.338 92.9877 115.737C90.189 117.749 87.2925 119.608 84.309 121.31C84.2242 121.362 84.1393 121.415 84.0545 121.467C78.6974 125.278 73.5443 129.409 68.622 133.844C67.8273 134.654 67.0604 135.45 66.343 136.194L66.3316 136.206C65.3752 137.062 64.4812 137.987 63.6559 138.973C63.6521 138.979 63.6483 138.985 63.6445 138.992C63.6117 139.029 63.5793 139.067 63.5468 139.104C62.4525 140.429 61.4813 141.862 60.6484 143.385C59.5567 144.962 58.6084 146.64 57.8156 148.395C57.5334 149.073 57.272 149.761 57.032 150.458C56.3244 152.271 55.6814 154.107 55.1033 155.962C55.0071 156.446 54.9267 156.933 54.8627 157.424H54.6625ZM387.5 367.679C387.345 367.679 387.19 367.679 387.035 367.679C257.265 367.679 127.083 343.032 55.3793 295.558V330.708C55.3793 352.832 94.1999 380.418 162.527 400.85L162.315 400.365C201.552 411.323 241.469 419.247 281.736 424.095C314.053 427.683 349.275 429.727 387.035 429.727C387.19 429.729 387.345 429.732 387.5 429.734C387.655 429.732 387.81 429.729 387.965 429.727C425.725 429.727 460.947 427.683 493.264 424.095C533.531 419.247 573.448 411.323 612.685 400.365L612.473 400.85C680.8 380.418 719.621 352.832 719.621 330.708V295.558C647.917 343.032 517.735 367.679 387.965 367.679C387.81 367.679 387.655 367.679 387.5 367.679ZM387.5 487.49C413.95 487.632 440.376 486.61 466.707 484.432C568.195 476.499 662.334 453.225 719.414 415.689V450.517C719.414 478.614 656.469 515.62 549.811 535.45C515.765 541.482 481.44 545.57 446.991 547.7C428.035 548.826 408.271 549.43 387.759 549.43C387.672 549.43 387.586 549.43 387.5 549.431C387.414 549.43 387.327 549.43 387.241 549.43C366.729 549.43 346.965 548.826 328.01 547.7C293.56 545.57 259.235 541.482 225.189 535.45C118.531 515.62 55.5858 478.614 55.5858 450.517V415.689C112.666 453.225 206.805 476.499 308.293 484.432C334.625 486.61 361.05 487.632 387.5 487.49ZM387.5 607.191C387.414 607.191 387.327 607.191 387.241 607.191C257.472 607.191 127.29 582.543 55.5858 535.391V570.219C55.5858 602.68 139.161 646.902 276.89 663.03L276.793 662.809C292.67 664.737 308.589 666.233 324.534 667.296C344.546 668.559 365.472 669.239 387.241 669.239C387.327 669.239 387.414 669.24 387.5 669.24C387.586 669.24 387.672 669.239 387.759 669.239C409.528 669.239 430.454 668.559 450.466 667.296C466.411 666.233 482.33 664.737 498.206 662.809L498.11 663.03C635.839 646.902 719.414 602.68 719.414 570.219V535.391C647.71 582.543 517.528 607.191 387.759 607.191C387.672 607.191 387.586 607.191 387.5 607.191ZM224.16 206.703C260.602 188.702 312.66 179.058 364.718 176.928V58.091C361.995 58.119 359.271 58.1614 356.549 58.2178C293.984 59.5759 231.769 68.4048 171.137 84.5357L224.16 206.703ZM550.84 206.703C514.398 188.702 462.34 179.058 410.282 176.928V58.091C413.005 58.119 415.727 58.1614 418.449 58.2178C481.015 59.5759 543.231 68.4048 603.863 84.5357L550.84 206.703Z" fill="#7F8285" fill-opacity="0.1"/>
</svg>
